<mxfile host="app.diagrams.net" agent="Mozilla/5.0 (Windows NT 10.0; Win64; x64; rv:136.0) Gecko/20100101 Firefox/136.0" version="26.1.1">
  <diagram name="Page-1" id="YKh3B6-TR9HwbLoaRyh0">
    <mxGraphModel dx="1050" dy="558" grid="1" gridSize="10" guides="1" tooltips="1" connect="1" arrows="1" fold="1" page="1" pageScale="1" pageWidth="827" pageHeight="1169" math="0" shadow="0">
      <root>
        <mxCell id="0" />
        <mxCell id="1" parent="0" />
        <mxCell id="FCBVg89ZFEz5y27hzP2G-1" value="&lt;div&gt;&lt;/div&gt;" style="rounded=0;whiteSpace=wrap;html=1;" parent="1" vertex="1">
          <mxGeometry x="195" y="20" width="375" height="520" as="geometry" />
        </mxCell>
        <mxCell id="FCBVg89ZFEz5y27hzP2G-7" style="edgeStyle=orthogonalEdgeStyle;rounded=0;orthogonalLoop=1;jettySize=auto;html=1;entryX=0;entryY=0.5;entryDx=0;entryDy=0;endArrow=none;startFill=0;" parent="1" source="FCBVg89ZFEz5y27hzP2G-2" target="FCBVg89ZFEz5y27hzP2G-5" edge="1">
          <mxGeometry relative="1" as="geometry" />
        </mxCell>
        <mxCell id="0lvFHwBWFy-okR7_8ojh-16" style="edgeStyle=orthogonalEdgeStyle;rounded=0;orthogonalLoop=1;jettySize=auto;html=1;entryX=0;entryY=0.5;entryDx=0;entryDy=0;endArrow=none;startFill=0;" edge="1" parent="1" source="FCBVg89ZFEz5y27hzP2G-2" target="0lvFHwBWFy-okR7_8ojh-14">
          <mxGeometry relative="1" as="geometry">
            <Array as="points">
              <mxPoint x="210" y="140" />
              <mxPoint x="210" y="455" />
            </Array>
          </mxGeometry>
        </mxCell>
        <mxCell id="FCBVg89ZFEz5y27hzP2G-2" value="&lt;div&gt;User&lt;/div&gt;" style="shape=umlActor;verticalLabelPosition=bottom;verticalAlign=top;html=1;outlineConnect=0;" parent="1" vertex="1">
          <mxGeometry x="60" y="90" width="30" height="60" as="geometry" />
        </mxCell>
        <mxCell id="FCBVg89ZFEz5y27hzP2G-3" value="Login Subsystem" style="text;html=1;align=center;verticalAlign=middle;whiteSpace=wrap;rounded=0;" parent="1" vertex="1">
          <mxGeometry x="370" y="30" width="60" height="30" as="geometry" />
        </mxCell>
        <mxCell id="FCBVg89ZFEz5y27hzP2G-5" value="Enters in their login details." style="ellipse;whiteSpace=wrap;html=1;" parent="1" vertex="1">
          <mxGeometry x="330" y="90" width="140" height="70" as="geometry" />
        </mxCell>
        <mxCell id="FCBVg89ZFEz5y27hzP2G-18" value="" style="edgeStyle=orthogonalEdgeStyle;rounded=0;orthogonalLoop=1;jettySize=auto;html=1;endArrow=open;endFill=0;dashed=1;" parent="1" source="FCBVg89ZFEz5y27hzP2G-8" target="FCBVg89ZFEz5y27hzP2G-5" edge="1">
          <mxGeometry relative="1" as="geometry" />
        </mxCell>
        <mxCell id="FCBVg89ZFEz5y27hzP2G-20" value="&amp;lt;&amp;lt;include&amp;gt;&amp;gt;" style="edgeLabel;html=1;align=center;verticalAlign=middle;resizable=0;points=[];" parent="FCBVg89ZFEz5y27hzP2G-18" vertex="1" connectable="0">
          <mxGeometry y="-3" relative="1" as="geometry">
            <mxPoint as="offset" />
          </mxGeometry>
        </mxCell>
        <mxCell id="FCBVg89ZFEz5y27hzP2G-8" value="Shows map with incidents reported" style="ellipse;whiteSpace=wrap;html=1;" parent="1" vertex="1">
          <mxGeometry x="330" y="200" width="140" height="70" as="geometry" />
        </mxCell>
        <mxCell id="FCBVg89ZFEz5y27hzP2G-21" value="" style="edgeStyle=orthogonalEdgeStyle;rounded=0;orthogonalLoop=1;jettySize=auto;html=1;dashed=1;endArrow=open;endFill=0;" parent="1" source="FCBVg89ZFEz5y27hzP2G-19" target="FCBVg89ZFEz5y27hzP2G-8" edge="1">
          <mxGeometry relative="1" as="geometry" />
        </mxCell>
        <mxCell id="FCBVg89ZFEz5y27hzP2G-22" value="&amp;lt;&amp;lt;include&amp;gt;&amp;gt;" style="edgeLabel;html=1;align=center;verticalAlign=middle;resizable=0;points=[];" parent="FCBVg89ZFEz5y27hzP2G-21" vertex="1" connectable="0">
          <mxGeometry x="0.05" y="-1" relative="1" as="geometry">
            <mxPoint as="offset" />
          </mxGeometry>
        </mxCell>
        <mxCell id="FCBVg89ZFEz5y27hzP2G-19" value="Tracks the user&#39;s location, in real time" style="ellipse;whiteSpace=wrap;html=1;" parent="1" vertex="1">
          <mxGeometry x="330" y="310" width="140" height="70" as="geometry" />
        </mxCell>
        <mxCell id="0lvFHwBWFy-okR7_8ojh-15" value="" style="edgeStyle=orthogonalEdgeStyle;rounded=0;orthogonalLoop=1;jettySize=auto;html=1;endArrow=open;endFill=0;dashed=1;" edge="1" parent="1" source="0lvFHwBWFy-okR7_8ojh-14" target="FCBVg89ZFEz5y27hzP2G-19">
          <mxGeometry relative="1" as="geometry" />
        </mxCell>
        <mxCell id="0lvFHwBWFy-okR7_8ojh-17" value="&amp;lt;&amp;lt;extend&amp;gt;&amp;gt;" style="edgeLabel;html=1;align=center;verticalAlign=middle;resizable=0;points=[];" vertex="1" connectable="0" parent="0lvFHwBWFy-okR7_8ojh-15">
          <mxGeometry x="0.05" relative="1" as="geometry">
            <mxPoint as="offset" />
          </mxGeometry>
        </mxCell>
        <mxCell id="0lvFHwBWFy-okR7_8ojh-14" value="Reports an emergency" style="ellipse;whiteSpace=wrap;html=1;" vertex="1" parent="1">
          <mxGeometry x="330" y="420" width="140" height="70" as="geometry" />
        </mxCell>
      </root>
    </mxGraphModel>
  </diagram>
</mxfile>
